<?xml version="1.0" encoding="UTF-8" standalone="no"?>
<!-- Generator: Adobe Illustrator 17.1.0, SVG Export Plug-In . SVG Version: 6.00 Build 0)  -->

<svg
   xmlns:dc="http://purl.org/dc/elements/1.1/"
   xmlns:cc="http://creativecommons.org/ns#"
   xmlns:rdf="http://www.w3.org/1999/02/22-rdf-syntax-ns#"
   xmlns:svg="http://www.w3.org/2000/svg"
   xmlns="http://www.w3.org/2000/svg"
   xmlns:sodipodi="http://sodipodi.sourceforge.net/DTD/sodipodi-0.dtd"
   xmlns:inkscape="http://www.inkscape.org/namespaces/inkscape"
   version="1.1"
   id="Layer_1"
   x="0px"
   y="0px"
   viewBox="0 119 91 20"
   xml:space="preserve"
   inkscape:version="0.91 r13725"
   sodipodi:docname="network.svg"
   width="91"
   height="20"><metadata
     id="metadata3490"><rdf:RDF><cc:Work
         rdf:about=""><dc:format>image/svg+xml</dc:format><dc:type
           rdf:resource="http://purl.org/dc/dcmitype/StillImage" /><dc:title /></cc:Work></rdf:RDF></metadata><defs
     id="defs3488" /><sodipodi:namedview
     pagecolor="#ffffff"
     bordercolor="#666666"
     borderopacity="1"
     objecttolerance="10"
     gridtolerance="10"
     guidetolerance="10"
     inkscape:pageopacity="0"
     inkscape:pageshadow="2"
     inkscape:window-width="1366"
     inkscape:window-height="704"
     id="namedview3486"
     showgrid="false"
     inkscape:zoom="9.9089231"
     inkscape:cx="31.904845"
     inkscape:cy="20.002749"
     inkscape:window-x="0"
     inkscape:window-y="27"
     inkscape:window-maximized="1"
     inkscape:current-layer="g3446" /><g
     id="bgd"
     transform="translate(0,-41.999995)" /><g
     id="hex"
     display="none"
     style="display:none"
     transform="translate(0,-41.999995)" /><g
     id="joiners"
     display="none"
     style="display:none"
     transform="translate(0,-41.999995)" /><g
     id="Layer_4"
     transform="translate(0,-41.999995)"><g
       id="g3446"><polygon
         points="124.77,169.056 132.53,164.576 132.53,155.616 124.77,151.136 117.011,155.616 117.011,164.576 "
         id="polygon3448"
         style="fill:#287397;fill-opacity:1"
         transform="matrix(0.30052855,0,0,0.30052826,0.759135,125.72414)" /><polygon
         points="89.237,168.49 96.997,164.01 96.997,155.05 89.237,150.571 81.477,155.05 81.477,164.01 "
         id="polygon3450"
         style="fill:#287397;fill-opacity:1"
         transform="matrix(0.30052855,0,0,0.30052826,0.759135,125.72414)" /><polygon
         points="194.531,168.75 202.292,164.27 202.292,155.31 194.531,150.83 186.771,155.31 186.771,164.27 "
         id="polygon3452"
         style="fill:#287397;fill-opacity:1"
         transform="matrix(0.30052855,0,0,0.30052826,0.759135,125.72414)" /><polygon
         points="160.148,168.296 167.908,163.816 167.908,154.856 160.148,150.377 152.388,154.856 152.388,163.816 "
         id="polygon3454"
         style="fill:#287397;fill-opacity:1"
         transform="matrix(0.30052855,0,0,0.30052826,0.759135,125.72414)" /><polygon
         points="177.135,137.989 184.894,133.509 184.894,124.55 177.135,120.07 169.375,124.55 169.375,133.509 "
         id="polygon3456"
         style="fill:#287397;fill-opacity:1"
         transform="matrix(0.30052855,0,0,0.30052826,0.759135,125.72414)" /><polygon
         points="133.633,153.587 141.392,149.107 141.392,140.147 133.633,135.667 125.873,140.147 125.873,149.107 "
         id="polygon3458"
         style="fill:#287397;fill-opacity:1"
         transform="matrix(0.30052855,0,0,0.30052826,0.759135,125.72414)" /><polygon
         points="142.361,120.112 134.601,124.592 134.601,133.552 142.361,138.032 150.12,133.552 150.12,124.592 "
         id="polygon3460"
         style="fill:#287397;fill-opacity:1"
         transform="matrix(0.30052855,0,0,0.30052826,0.759135,125.72414)" /><polygon
         points="106.933,120.307 99.174,124.786 99.174,133.746 106.933,138.226 114.694,133.746 114.694,124.786 "
         id="polygon3462"
         style="fill:#287397;fill-opacity:1"
         transform="matrix(0.30052855,0,0,0.30052826,0.759135,125.72414)" /><polygon
         points="36.793,138.183 44.553,133.704 44.553,124.744 36.793,120.264 29.033,124.744 29.033,133.704 "
         id="polygon3464"
         style="fill:#287397;fill-opacity:1"
         transform="matrix(0.30052855,0,0,0.30052826,0.759135,125.72414)" /><polygon
         points="265.248,120.07 257.489,124.549 257.489,133.509 265.248,137.989 273.007,133.509 273.007,124.549 "
         id="polygon3466"
         style="fill:#287397;fill-opacity:1"
         transform="matrix(0.30052855,0,0,0.30052826,0.759135,125.72414)" /><polygon
         points="71.816,120.264 64.056,124.744 64.056,133.703 71.816,138.183 79.575,133.703 79.575,124.744 "
         id="polygon3468"
         style="fill:#287397;fill-opacity:1"
         transform="matrix(0.30052855,0,0,0.30052826,0.759135,125.72414)" /><polygon
         points="28.053,153.311 35.812,148.831 35.812,139.871 28.053,135.392 20.293,139.871 20.293,148.831 "
         id="polygon3470"
         style="fill:#287397;fill-opacity:1"
         transform="matrix(0.30052855,0,0,0.30052826,0.759135,125.72414)" /><polygon
         points="54.249,169.056 62.009,164.576 62.009,155.616 54.249,151.136 46.49,155.616 46.49,164.576 "
         id="polygon3472"
         style="fill:#287397;fill-opacity:1"
         transform="matrix(0.30052855,0,0,0.30052826,0.759135,125.72414)" /><polygon
         points="291.125,153.648 298.886,149.168 298.886,140.208 291.125,135.728 283.366,140.208 283.366,149.168 "
         id="polygon3474"
         style="fill:#287397;fill-opacity:1"
         transform="matrix(0.30052855,0,0,0.30052826,0.759135,125.72414)" /><polygon
         points="221.332,153.117 229.092,148.637 229.092,139.677 221.332,135.198 213.573,139.677 213.573,148.637 "
         id="polygon3476"
         style="fill:#287397;fill-opacity:1"
         transform="matrix(0.30052855,0,0,0.30052826,0.759135,125.72414)" /><polygon
         points="281.478,170.402 289.237,165.923 289.237,156.963 281.478,152.483 273.718,156.963 273.718,165.923 "
         id="polygon3478"
         style="fill:#287397;fill-opacity:1"
         transform="matrix(0.30052855,0,0,0.30052826,0.759135,125.72414)" /><polygon
         points="256.391,153.064 264.151,148.584 264.151,139.624 256.391,135.144 248.631,139.624 248.631,148.584 "
         id="polygon3480"
         style="fill:#287397;fill-opacity:1"
         transform="matrix(0.30052855,0,0,0.30052826,0.759135,125.72414)" /><polygon
         points="212.592,137.989 220.352,133.509 220.352,124.55 212.592,120.07 204.832,124.55 204.832,133.509 "
         id="polygon3482"
         style="fill:#287397;fill-opacity:1"
         transform="matrix(0.30052855,0,0,0.30052826,0.759135,125.72414)" /><path
         d="M 0,160.43064 0,181 l 91.210421,0 0,-20.56936 -91.210421,0 z m 78.046961,2.66929 2.42647,-1.40076 2.42677,1.40076 0,2.80212 -2.42677,1.40106 -2.42647,-1.40106 0,-2.80212 z m -36.93135,0.0129 2.42707,-1.40108 2.42646,1.40108 0,2.80212 -2.42646,1.40106 -2.42707,-1.40106 0,-2.80212 z m -5.57781,0.13643 c 0,-0.14484 0.11751,-0.26236 0.26266,-0.26236 0.14516,0 0.26266,0.11752 0.26266,0.26236 0,0.12863 -0.0929,0.23532 -0.21517,0.25786 l 0,2.48806 c 0.12231,0.0222 0.21517,0.12893 0.21517,0.25786 0,0.0379 -0.008,0.0736 -0.0229,0.10609 l 1.67395,0.94005 c 0.0502,-0.12742 0.1737,-0.21819 0.31916,-0.21819 0.15357,0 0.2819,0.10129 0.32577,0.24043 l 1.80828,-0.98664 c -0.008,-0.0258 -0.0142,-0.0529 -0.0142,-0.0814 0,-0.14485 0.11751,-0.26236 0.26236,-0.26236 0.14486,0 0.26267,0.11751 0.26267,0.26236 0,0.14486 -0.11751,0.26236 -0.26267,0.26236 -0.0823,0 -0.15477,-0.0385 -0.20285,-0.098 l -1.83653,1.00196 c 0,0.002 3e-4,0.003 3e-4,0.005 0,0.17822 -0.13614,0.32307 -0.30985,0.33991 l 0,2.29542 c 0.12232,0.0222 0.21518,0.12893 0.21518,0.25786 0,0.14485 -0.1175,0.26236 -0.26266,0.26236 -0.0799,0 -0.15086,-0.0367 -0.19895,-0.0929 l -2.15539,1.2445 c 0.0418,0.1172 -0.004,0.25093 -0.11571,0.31525 -0.12561,0.0724 -0.2861,0.0295 -0.35853,-0.0962 -0.0724,-0.12562 -0.0294,-0.2861 0.0962,-0.35852 0.1115,-0.0643 0.25034,-0.0373 0.33089,0.0574 l 2.15539,-1.24448 c -0.01,-0.0277 -0.0162,-0.0568 -0.0162,-0.0875 0,-0.12862 0.0929,-0.23531 0.21518,-0.25785 l 0,-2.29814 c -0.16018,-0.0289 -0.2822,-0.1686 -0.2822,-0.33718 0,-0.01 0.002,-0.0189 0.003,-0.0286 l -1.7058,-0.95778 c -0.0475,0.0481 -0.1136,0.0778 -0.18633,0.0778 -0.0796,0 -0.15027,-0.0363 -0.19835,-0.0926 l -1.762,1.02329 c 7e-4,0.008 0.002,0.0154 0.002,0.0235 0,0.14485 -0.11751,0.26235 -0.26236,0.26235 -0.14486,0 -0.262664,-0.1175 -0.262664,-0.26235 0,-0.14486 0.117504,-0.26237 0.262664,-0.26237 0.10248,0 0.19023,0.0592 0.23351,0.14485 l 1.74096,-1.01097 c -0.01,-0.0277 -0.0162,-0.0571 -0.0162,-0.0883 0,-0.12863 0.0929,-0.23532 0.21518,-0.25786 l 0,-2.48837 c -0.12322,-0.0222 -0.21608,-0.12863 -0.21608,-0.25755 z m -5.068714,-0.0781 2.426468,-1.40106 2.427066,1.40106 0,2.80213 -2.427066,1.40106 -2.426468,-1.40106 0,-2.80213 z m -10.553961,-0.0126 2.426768,-1.40075 2.426768,1.40075 0,2.80212 -2.426768,1.40077 -2.426768,-1.40077 0,-2.80212 0,0 z m -11.487704,9.22141 c -0.144855,0 -0.262362,-0.11751 -0.262362,-0.26236 0,-0.0406 0.0099,-0.0787 0.02645,-0.113 l -1.733449,-1.00677 c -0.04809,0.0562 -0.118708,0.0926 -0.198349,0.0926 -0.08235,0 -0.154772,-0.0388 -0.202857,-0.098 l -1.866282,1.01819 c 0.0096,0.0315 0.01623,0.0643 0.01623,0.0989 0,0.17341 -0.128927,0.31526 -0.296021,0.3387 l 0,2.18634 c 0.122315,0.0222 0.215179,0.12893 0.215179,0.25787 0,0.0307 -0.0063,0.0595 -0.01593,0.0868 l 1.738558,0.99775 c 0.02163,-0.0315 0.04929,-0.0592 0.08445,-0.0793 0.125621,-0.0724 0.286103,-0.0295 0.358531,0.0962 0.07243,0.12562 0.02946,0.28611 -0.09617,0.35852 -0.12562,0.0724 -0.286103,0.0295 -0.35853,-0.0962 -0.03486,-0.0607 -0.04237,-0.12923 -0.02735,-0.19234 l -1.746969,-1.00256 c -0.04809,0.0568 -0.119009,0.0935 -0.199251,0.0935 -0.07994,0 -0.150865,-0.0366 -0.19895,-0.0929 l -2.15539,1.24418 c 0.04177,0.11721 -0.0042,0.25094 -0.115704,0.31525 -0.125621,0.0724 -0.286103,0.0295 -0.35853,-0.0962 -0.07243,-0.12562 -0.02945,-0.2861 0.09617,-0.35852 0.111496,-0.0643 0.25034,-0.0373 0.330882,0.0574 l 2.15539,-1.24448 c -0.0099,-0.0277 -0.01623,-0.0568 -0.01623,-0.0874 0,-0.12863 0.09286,-0.23531 0.215179,-0.25786 l 0,-2.18635 c -0.167094,-0.0232 -0.296021,-0.1653 -0.296021,-0.3387 0,-0.0475 0.0096,-0.0926 0.02705,-0.13344 l -1.716017,-0.96351 c -0.04748,0.0481 -0.113599,0.0778 -0.186328,0.0778 -0.144854,0 -0.262662,-0.11752 -0.262662,-0.26237 0,-0.12862 0.09286,-0.2353 0.215179,-0.25785 l 0,-2.48808 c -0.122315,-0.0222 -0.215179,-0.12891 -0.215179,-0.25785 0,-0.14485 0.117507,-0.26236 0.262662,-0.26236 0.145156,0 0.262362,0.11751 0.262362,0.26236 0,0.12862 -0.09286,0.23531 -0.215179,0.25785 l 0,2.48808 c 0.122315,0.0222 0.215179,0.12893 0.215179,0.25785 0,0.0379 -0.0084,0.0736 -0.02284,0.10608 l 1.712412,0.9617 c 0.06281,-0.0781 0.158378,-0.12924 0.266569,-0.12924 0.121113,0 0.227199,0.0631 0.288207,0.15779 l 1.859669,-1.01459 c -0.0084,-0.0258 -0.01412,-0.0529 -0.01412,-0.0814 0,-0.12862 0.09286,-0.2353 0.215179,-0.25786 l 0,-2.48806 c -0.122316,-0.0222 -0.215179,-0.12892 -0.215179,-0.25786 0,-0.14485 0.117506,-0.26236 0.262362,-0.26236 0.144854,0 0.262361,0.11751 0.262361,0.26236 0,0.12862 -0.09286,0.23532 -0.215178,0.25786 l 0,2.48806 c 0.122315,0.0223 0.215178,0.12893 0.215178,0.25786 0,0.0312 -0.0063,0.0604 -0.01623,0.0883 l 1.741563,1.01128 c 0.04719,-0.0445 0.110293,-0.0724 0.180317,-0.0724 0.144855,0 0.262362,0.1175 0.262362,0.26236 0,0.14485 -0.117507,0.26236 -0.262362,0.26236 z m 3.188908,-1.87319 -2.426467,1.40106 -2.426768,-1.40106 0,-2.80212 2.426768,-1.40077 2.426467,1.40077 0,2.80212 z m -2.226616,-4.5461 0,-2.80212 2.426468,-1.40106 2.426768,1.40106 0,2.80212 -2.426768,1.40108 -2.426468,-1.40108 z m 10.099863,9.27791 -2.427068,1.40106 -0.02374,-0.0135 -2.402727,-1.38723 0,-2.80213 2.426469,-1.40106 2.427067,1.40106 0,2.80182 0,0 z m -2.06974,-7.72751 c 0,0.17823 -0.136139,0.32307 -0.309845,0.33991 l 0,2.29544 c 0.122316,0.0222 0.215178,0.12893 0.215178,0.25784 0,0.0307 -0.0063,0.0595 -0.01593,0.0869 l 1.738557,0.99775 c 0.02163,-0.0315 0.04929,-0.0592 0.08475,-0.0793 0.125621,-0.0724 0.286103,-0.0295 0.35853,0.0962 0.07243,0.12562 0.02946,0.2861 -0.09617,0.35854 -0.125621,0.0724 -0.286103,0.0295 -0.358531,-0.0962 -0.03486,-0.0607 -0.04237,-0.12923 -0.02735,-0.19233 l -1.746973,-1.00256 c -0.04808,0.0568 -0.119009,0.0935 -0.19925,0.0935 -0.07994,0 -0.150865,-0.0367 -0.19895,-0.0929 l -2.155391,1.24448 c 0.04177,0.11721 -0.0042,0.25094 -0.115703,0.31526 -0.125621,0.0724 -0.286104,0.0295 -0.358531,-0.0962 -0.07243,-0.12562 -0.02946,-0.28611 0.09617,-0.35853 0.111497,-0.0643 0.250341,-0.0373 0.330883,0.0574 l 2.15539,-1.24448 c -0.0099,-0.0277 -0.01623,-0.0568 -0.01623,-0.0874 0,-0.12863 0.09286,-0.23531 0.215178,-0.25786 l 0,-2.29844 c -0.160182,-0.0289 -0.281895,-0.1686 -0.281895,-0.33719 0,-0.01 0.0021,-0.0189 0.003,-0.0285 l -1.7058,-0.95778 c -0.04749,0.0481 -0.1136,0.0778 -0.186328,0.0778 -0.07964,0 -0.150264,-0.0363 -0.198349,-0.0926 l -1.762299,1.0233 c 6.36e-4,0.008 0.0024,0.0154 0.0024,0.0234 0,0.14486 -0.117507,0.26236 -0.262662,0.26236 -0.144855,0 -0.262362,-0.1175 -0.262362,-0.26236 0,-0.14485 0.117507,-0.26236 0.262362,-0.26236 0.102481,0 0.190235,0.0592 0.23351,0.14486 l 1.740963,-1.01099 c -0.0099,-0.0277 -0.01623,-0.0571 -0.01623,-0.0883 0,-0.12863 0.09286,-0.23531 0.215179,-0.25785 l 0,-2.48807 c -0.122315,-0.0222 -0.215179,-0.12893 -0.215179,-0.25786 0,-0.14485 0.117507,-0.26235 0.262361,-0.26235 0.144855,0 0.262362,0.1175 0.262362,0.26235 0,0.12863 -0.09286,0.23531 -0.215178,0.25786 l 0,2.48837 c 0.122315,0.0222 0.215178,0.12892 0.215178,0.25785 0,0.0379 -0.0084,0.0736 -0.02254,0.10579 l 1.673944,0.94005 c 0.05019,-0.12742 0.173705,-0.21818 0.318861,-0.21818 0.153571,0 0.281896,0.10128 0.325773,0.24042 l 1.80828,-0.98663 c -0.0084,-0.0258 -0.01412,-0.0529 -0.01412,-0.0815 0,-0.12862 0.09286,-0.23531 0.215178,-0.25785 l 0,-2.48807 c -0.122315,-0.0222 -0.215178,-0.12893 -0.215178,-0.25786 0,-0.14485 0.117506,-0.26235 0.262362,-0.26235 0.144855,0 0.262661,0.1175 0.262661,0.26235 0,0.12863 -0.09286,0.23532 -0.215178,0.25786 l 0,2.48807 c 0.122315,0.0222 0.215178,0.12892 0.215178,0.25785 0,0.0313 -0.0063,0.0604 -0.01623,0.0884 l 1.741563,1.01127 c 0.04718,-0.0445 0.110294,-0.0724 0.180317,-0.0724 0.144855,0 0.262361,0.11751 0.262361,0.26236 0,0.14486 -0.117506,0.26236 -0.262361,0.26236 -0.144855,0 -0.262361,-0.1175 -0.262361,-0.26236 0,-0.0405 0.0099,-0.0787 0.02645,-0.113 l -1.733448,-1.00647 c -0.04809,0.0562 -0.118709,0.0926 -0.19835,0.0926 -0.08234,0 -0.154772,-0.0385 -0.202856,-0.098 l -1.83653,1.00196 c -8.66e-4,0.002 -6.35e-4,0.003 -6.35e-4,0.005 z m 9.374087,9.47115 c -0.144856,0 -0.262662,-0.1175 -0.262662,-0.26236 0,-0.0406 0.0099,-0.0787 0.02646,-0.113 l -1.73345,-1.00676 c -0.04808,0.0562 -0.118708,0.0926 -0.198348,0.0926 -0.08235,0 -0.154772,-0.0385 -0.202857,-0.098 l -1.866282,1.01819 c 0.0096,0.0315 0.01623,0.0643 0.01623,0.0989 0,0.17341 -0.128927,0.31526 -0.296021,0.3387 l 0,2.18634 c 0.122315,0.0222 0.215179,0.12894 0.215179,0.25787 0,0.14485 -0.117507,0.26236 -0.262662,0.26236 -0.145155,0 -0.262362,-0.11751 -0.262362,-0.26236 0,-0.12864 0.09286,-0.23532 0.215179,-0.25787 l 0,-2.18634 c -0.167095,-0.0232 -0.296021,-0.16529 -0.296021,-0.3387 0,-0.0475 0.0096,-0.0926 0.02705,-0.13343 l -1.716018,-0.96349 c -0.04749,0.0481 -0.1136,0.0778 -0.186328,0.0778 -0.144855,0 -0.262662,-0.11751 -0.262662,-0.26236 0,-0.12863 0.09286,-0.23531 0.215179,-0.25786 l 0,-2.48807 c -0.122315,-0.0222 -0.215179,-0.12893 -0.215179,-0.25786 0,-0.14485 0.117507,-0.26236 0.262662,-0.26236 0.145155,0 0.262662,0.11751 0.262662,0.26236 0,0.12863 -0.09286,0.23532 -0.215178,0.25786 l 0,2.48837 c 0.122314,0.0222 0.215178,0.12893 0.215178,0.25786 0,0.0379 -0.0084,0.0736 -0.02284,0.10578 l 1.712411,0.96169 c 0.06281,-0.0781 0.158379,-0.12923 0.26657,-0.12923 0.121113,0 0.227199,0.0631 0.288206,0.15778 l 1.859671,-1.01458 c -0.0084,-0.0258 -0.01413,-0.0529 -0.01413,-0.0814 0,-0.12863 0.09286,-0.23531 0.215178,-0.25786 l 0,-2.48837 c -0.122314,-0.0222 -0.215178,-0.12893 -0.215178,-0.25786 0,-0.14485 0.117507,-0.26236 0.262362,-0.26236 0.144855,0 0.262662,0.11751 0.262662,0.26236 0,0.12863 -0.09286,0.23532 -0.215179,0.25786 l 0,2.48807 c 0.122316,0.0222 0.215179,0.12893 0.215179,0.25786 0,0.0312 -0.0063,0.0604 -0.01623,0.0883 l 1.741563,1.01128 c 0.04719,-0.0445 0.110294,-0.0724 0.180315,-0.0724 0.144856,0 0.262364,0.1175 0.262364,0.26236 0,0.14486 -0.117508,0.26236 -0.262662,0.26236 z m 3.210245,-1.91376 -2.427069,1.40106 -2.426466,-1.40106 0,-2.80213 2.426767,-1.40106 2.427071,1.40106 -3.03e-4,2.80213 0,0 z m -2.061928,-7.68241 c 0,0.17822 -0.136135,0.32307 -0.30984,0.3399 l 0,2.29545 c 0.122311,0.0222 0.215176,0.12891 0.215176,0.25784 0,0.0307 -0.0063,0.0595 -0.01593,0.0869 l 1.738559,0.99775 c 0.02165,-0.0315 0.04929,-0.0592 0.08474,-0.0793 0.125623,-0.0724 0.286105,-0.0295 0.358535,0.0962 0.07243,0.12561 0.02943,0.2861 -0.09617,0.35853 -0.125623,0.0724 -0.286105,0.0295 -0.35853,-0.0962 -0.03486,-0.0607 -0.04237,-0.12923 -0.02736,-0.19234 l -1.746971,-1.00256 c -0.04809,0.0568 -0.119012,0.0935 -0.199253,0.0935 -0.07994,0 -0.150865,-0.0366 -0.198948,-0.0932 l -2.155391,1.24449 c 0.04177,0.11721 -0.0042,0.25094 -0.115704,0.31525 -0.125621,0.0724 -0.286103,0.0295 -0.358531,-0.0962 -0.07243,-0.12563 -0.02946,-0.28612 0.09617,-0.35853 0.111496,-0.0643 0.25034,-0.0373 0.330882,0.0574 l 2.155389,-1.24449 c -0.0099,-0.0277 -0.01623,-0.0568 -0.01623,-0.0874 0,-0.12863 0.09286,-0.23532 0.215178,-0.25786 l 0,-2.29845 c -0.160183,-0.0289 -0.281895,-0.16859 -0.281895,-0.33718 0,-0.01 0.002,-0.0189 0.0029,-0.0285 l -1.7058,-0.95778 c -0.04749,0.0481 -0.113599,0.0778 -0.186328,0.0778 -0.07964,0 -0.150263,-0.0363 -0.198348,-0.0926 l -1.761999,1.02331 c 6.35e-4,0.008 0.0024,0.0154 0.0024,0.0235 0,0.14485 -0.117507,0.26235 -0.262662,0.26235 -0.145154,0 -0.262361,-0.1175 -0.262361,-0.26235 0,-0.14486 0.117506,-0.26237 0.262361,-0.26237 0.10248,0 0.190235,0.0592 0.233511,0.14486 l 1.740962,-1.01097 c -0.0099,-0.0277 -0.01623,-0.0571 -0.01623,-0.0884 0,-0.12862 0.09286,-0.23531 0.215179,-0.25785 l 0,-2.48807 c -0.122315,-0.0222 -0.215179,-0.12894 -0.215179,-0.25786 0,-0.14486 0.117507,-0.26236 0.262662,-0.26236 0.144856,0 0.262363,0.1175 0.262363,0.26236 0,0.12863 -0.09286,0.23532 -0.215179,0.25786 l 0,2.48836 c 0.122315,0.0222 0.215179,0.12894 0.215179,0.25786 0,0.0379 -0.0084,0.0736 -0.02285,0.10609 l 1.673946,0.94005 c 0.05019,-0.12743 0.173706,-0.21818 0.31886,-0.21818 0.15357,0 0.281897,0.10128 0.325771,0.24042 l 1.808288,-0.98664 c -0.0084,-0.0258 -0.01415,-0.0529 -0.01415,-0.0814 0,-0.12862 0.09286,-0.23531 0.215179,-0.25785 l 0,-2.48837 c -0.122315,-0.0222 -0.215179,-0.12893 -0.215179,-0.25786 0,-0.14486 0.117507,-0.26236 0.262661,-0.26236 0.144855,0 0.262362,0.1175 0.262362,0.26236 0,0.12862 -0.09286,0.23531 -0.215175,0.25786 l 0,2.48806 c 0.122311,0.0222 0.215175,0.12894 0.215175,0.25786 0,0.0312 -0.0063,0.0604 -0.01622,0.0884 l 1.741561,1.01127 c 0.04718,-0.0445 0.110295,-0.0724 0.18032,-0.0724 0.144854,0 0.262661,0.1175 0.262661,0.26236 0,0.14486 -0.117507,0.26236 -0.262661,0.26236 -0.145155,0 -0.262362,-0.1175 -0.262362,-0.26236 0,-0.0406 0.0099,-0.0787 0.02647,-0.11301 l -1.733452,-1.00676 c -0.04809,0.0562 -0.118707,0.0926 -0.198348,0.0926 -0.08235,0 -0.154775,-0.0385 -0.202857,-0.098 l -1.836532,1.00198 c -0.0014,0.002 -0.0011,0.003 -0.0011,0.005 z m 9.46605,9.74703 c -0.14485,0 -0.26236,-0.1175 -0.26236,-0.26236 0,-0.0406 0.01,-0.0787 0.0265,-0.11299 l -1.73345,-1.00677 c -0.0481,0.0562 -0.11871,0.0926 -0.19835,0.0926 -0.0823,0 -0.15477,-0.0388 -0.20286,-0.098 l -1.866278,1.01818 c 0.0096,0.0315 0.01622,0.0643 0.01622,0.0989 0,0.17341 -0.128927,0.31526 -0.296021,0.33869 l 0,2.18635 c 0.122315,0.0222 0.215179,0.12893 0.215179,0.25785 0,0.14486 -0.117507,0.26237 -0.262364,0.26237 -0.144852,0 -0.262662,-0.11751 -0.262662,-0.26237 0,-0.12862 0.09286,-0.23531 0.215179,-0.25785 l 0,-2.18635 c -0.167093,-0.0232 -0.296021,-0.16528 -0.296021,-0.33869 0,-0.0475 0.0096,-0.0926 0.02704,-0.13343 l -1.716017,-0.96349 c -0.04748,0.0481 -0.113599,0.0778 -0.186328,0.0778 -0.144855,0 -0.262662,-0.1175 -0.262662,-0.26236 0,-0.12862 0.09286,-0.23531 0.215179,-0.25785 l 0,-2.48808 c -0.122315,-0.0222 -0.215179,-0.12892 -0.215179,-0.25785 0,-0.14485 0.117507,-0.26236 0.262662,-0.26236 0.145158,0 0.262362,0.11751 0.262362,0.26236 0,0.12862 -0.09287,0.23532 -0.215177,0.25785 l 0,2.48838 c 0.122312,0.0222 0.215177,0.12893 0.215177,0.25786 0,0.0379 -0.0084,0.0736 -0.02254,0.10608 l 1.712413,0.96169 c 0.06281,-0.0781 0.158378,-0.12923 0.26657,-0.12923 0.121112,0 0.227199,0.0631 0.288205,0.15778 l 1.859667,-1.01458 c -0.008,-0.0258 -0.0141,-0.0529 -0.0141,-0.0814 0,-0.12862 0.0929,-0.23531 0.21518,-0.25785 l 0,-2.48838 c -0.12232,-0.0222 -0.21518,-0.12893 -0.21518,-0.25785 0,-0.14485 0.1175,-0.26237 0.26266,-0.26237 0.14515,0 0.26236,0.11752 0.26236,0.26237 0,0.12863 -0.0929,0.23531 -0.21518,0.25785 l 0,2.48808 c 0.12232,0.0222 0.21518,0.12893 0.21518,0.25786 0,0.0312 -0.006,0.0604 -0.0162,0.0884 l 1.74156,1.01127 c 0.0472,-0.0445 0.1103,-0.0724 0.18002,-0.0724 0.14486,0 0.26267,0.11751 0.26267,0.26237 -7e-4,0.14455 -0.11811,0.26205 -0.26297,0.26205 z m 3.27456,-1.89453 -2.42677,1.40107 -0.0238,-0.0135 -2.40303,-1.38723 0,-2.80213 2.42677,-1.40107 2.42677,1.40107 0,2.80182 0,0 z m -2.18995,-4.64886 0,-2.80213 2.42676,-1.40077 2.42647,1.40077 0,2.80213 -2.42647,1.40076 -2.42676,-1.40076 z m 9.60819,6.43701 c -0.14485,0 -0.26235,-0.11751 -0.26235,-0.26236 0,-0.0405 0.01,-0.0787 0.0265,-0.113 l -1.73345,-1.00677 c -0.0481,0.0562 -0.11871,0.0926 -0.19835,0.0926 -0.0823,0 -0.15477,-0.0388 -0.20286,-0.098 l -1.86627,1.01819 c 0.01,0.0315 0.0162,0.0643 0.0162,0.0989 0,0.17341 -0.12892,0.31526 -0.29602,0.3387 l 0,2.18635 c 0.12232,0.0222 0.21518,0.12892 0.21518,0.25785 0,0.14486 -0.11751,0.26236 -0.26236,0.26236 -0.14486,0 -0.26266,-0.1175 -0.26266,-0.26236 0,-0.12863 0.0929,-0.23532 0.21518,-0.25785 l 0,-2.18635 c -0.1671,-0.0232 -0.29602,-0.16529 -0.29602,-0.3387 0,-0.0475 0.01,-0.0926 0.027,-0.13373 l -1.71601,-0.96349 c -0.0475,0.0481 -0.1136,0.0778 -0.18633,0.0778 -0.14486,0 -0.26266,-0.1175 -0.26266,-0.26235 0,-0.12863 0.0929,-0.23532 0.21518,-0.25786 l 0,-2.48808 c -0.12232,-0.0222 -0.21518,-0.12892 -0.21518,-0.25785 0,-0.14485 0.11751,-0.26235 0.26266,-0.26235 0.14486,0 0.26236,0.1175 0.26236,0.26235 0,0.12863 -0.0929,0.23531 -0.21518,0.25785 l 0,2.48838 c 0.12232,0.0222 0.21518,0.12893 0.21518,0.25786 0,0.0379 -0.008,0.0736 -0.0229,0.10608 l 1.71242,0.96169 c 0.0628,-0.0781 0.15837,-0.12922 0.26657,-0.12922 0.12111,0 0.2272,0.0631 0.2882,0.15777 l 1.85967,-1.01458 c -0.008,-0.0258 -0.0141,-0.0529 -0.0141,-0.0814 0,-0.12862 0.0929,-0.23531 0.21518,-0.25785 l 0,-2.48838 c -0.12231,-0.0222 -0.21518,-0.12892 -0.21518,-0.25785 0,-0.14485 0.11751,-0.26237 0.26266,-0.26237 0.14486,0 0.26236,0.11752 0.26236,0.26237 0,0.12863 -0.0929,0.23532 -0.21517,0.25785 l 0,2.48808 c 0.12231,0.0222 0.21517,0.12893 0.21517,0.25786 0,0.0312 -0.006,0.0604 -0.0162,0.0883 l 1.74155,1.01128 c 0.0472,-0.0445 0.1103,-0.0724 0.18002,-0.0724 0.14486,0 0.26266,0.1175 0.26266,0.26236 -3e-4,0.14485 -0.1178,0.26236 -0.26266,0.26236 z m 3.21386,-2.01655 -2.42647,1.40107 -2.42707,-1.40107 0,-2.80212 2.42707,-1.40107 2.42647,1.40107 0,2.80212 z m 2.00513,-7.29231 c -0.14486,0 -0.26267,-0.11751 -0.26267,-0.26236 0,-0.008 0.002,-0.0157 0.002,-0.0235 l -1.762,-1.0233 c -0.0481,0.0562 -0.11871,0.0926 -0.19835,0.0926 -0.073,0 -0.13885,-0.0298 -0.18633,-0.0778 l -1.7058,0.95778 c 8.6e-4,0.01 0.003,0.0189 0.003,0.0285 0,0.1686 -0.12172,0.30805 -0.2819,0.3372 l 0,2.29844 c 0.12232,0.0222 0.21518,0.12892 0.21518,0.25785 0,0.031 -0.006,0.0601 -0.0162,0.0875 l 2.15539,1.24449 c 0.0805,-0.0947 0.21939,-0.12171 0.33089,-0.0574 0.12562,0.0724 0.16859,0.23291 0.0962,0.35853 -0.0724,0.12562 -0.23291,0.1686 -0.35853,0.0962 -0.11149,-0.0643 -0.15747,-0.19804 -0.1157,-0.31524 l -2.15539,-1.24449 c -0.0481,0.0565 -0.11901,0.0928 -0.19895,0.0928 -0.0802,0 -0.15116,-0.0367 -0.19925,-0.0935 l -1.74697,1.00255 c 0.015,0.0631 0.007,0.13163 -0.0274,0.19235 -0.0724,0.12561 -0.23291,0.16859 -0.35854,0.0962 -0.12561,-0.0724 -0.16859,-0.23291 -0.0962,-0.35853 0.0724,-0.12562 0.23291,-0.1686 0.35853,-0.0962 0.0352,0.0204 0.0631,0.0481 0.0847,0.0793 l 1.73856,-0.99775 c -0.01,-0.0273 -0.0159,-0.0562 -0.0159,-0.0868 0,-0.12863 0.0929,-0.23532 0.21517,-0.25786 l 0,-2.29543 c -0.1737,-0.0171 -0.30984,-0.16168 -0.30984,-0.3399 0,-0.002 3e-4,-0.003 3e-4,-0.005 l -1.83653,-1.00196 c -0.0481,0.0592 -0.12081,0.098 -0.20286,0.098 -0.0796,0 -0.15026,-0.0363 -0.19835,-0.0926 l -1.73344,1.00678 c 0.0165,0.0343 0.0265,0.0724 0.0265,0.11299 0,0.14486 -0.1175,0.26236 -0.26236,0.26236 -0.14486,0 -0.26266,-0.1175 -0.26266,-0.26236 0,-0.14485 0.11751,-0.26235 0.26266,-0.26235 0.07,0 0.13313,0.028 0.18032,0.0724 l 1.74156,-1.01127 c -0.01,-0.0277 -0.0162,-0.0571 -0.0162,-0.0884 0,-0.12862 0.0929,-0.23531 0.21518,-0.25785 l 0,-2.48837 c -0.12231,-0.0222 -0.21518,-0.12893 -0.21518,-0.25785 0,-0.14485 0.11751,-0.26236 0.26237,-0.26236 0.14485,0 0.26266,0.11751 0.26266,0.26236 0,0.12862 -0.0929,0.23531 -0.21518,0.25785 l 0,2.48837 c 0.12232,0.0222 0.21518,0.12893 0.21518,0.25785 0,0.0285 -0.006,0.0556 -0.0141,0.0815 l 1.80827,0.98664 c 0.0439,-0.13885 0.17251,-0.24043 0.32577,-0.24043 0.14546,0 0.26898,0.0908 0.31887,0.21819 l 1.67394,-0.94005 c -0.0144,-0.0325 -0.0226,-0.0682 -0.0226,-0.10609 0,-0.12863 0.0929,-0.23532 0.21518,-0.25786 l 0,-2.48837 c -0.12231,-0.0222 -0.21518,-0.12893 -0.21518,-0.25785 0,-0.14486 0.11751,-0.26237 0.26236,-0.26237 0.14486,0 0.26267,0.11751 0.26267,0.26237 0,0.12862 -0.0929,0.23531 -0.21518,0.25785 l 0,2.48807 c 0.12231,0.0222 0.21518,0.12893 0.21518,0.25785 0,0.0313 -0.006,0.0604 -0.0162,0.0884 l 1.74096,1.01098 c 0.0433,-0.0857 0.13103,-0.14486 0.23351,-0.14486 0.14486,0 0.26237,0.11751 0.26237,0.26237 0,0.14485 -0.11871,0.26235 -0.26387,0.26235 z m -1.75359,-1.8158 0,-2.80212 2.42677,-1.40076 2.42677,1.40076 0,2.80212 -2.42677,1.40077 -2.42677,-1.40077 z m 10.08184,9.24456 -2.42707,1.40105 -2.42677,-1.40105 0,-2.80213 2.42677,-1.40106 2.42707,1.40106 0,2.80213 z m 2.13735,-7.34642 c -0.14485,0 -0.26236,-0.1175 -0.26236,-0.26235 0,-0.0406 0.01,-0.0788 0.0265,-0.113 l -1.73345,-1.00677 c -0.0481,0.0562 -0.11871,0.0926 -0.19835,0.0926 -0.0824,0 -0.15477,-0.0385 -0.20286,-0.098 l -1.83653,1.00196 c 0,0.002 3.1e-4,0.003 3.1e-4,0.005 0,0.17822 -0.13614,0.32307 -0.30985,0.3399 l 0,2.29544 c 0.12231,0.0222 0.21518,0.12893 0.21518,0.25785 0,0.0307 -0.006,0.0595 -0.016,0.0869 l 1.73856,0.99774 c 0.0213,-0.0315 0.0493,-0.0592 0.0845,-0.0793 0.12562,-0.0724 0.2861,-0.0295 0.35853,0.0962 0.0724,0.12562 0.0295,0.2861 -0.0962,0.35853 -0.12562,0.0724 -0.2861,0.0295 -0.35853,-0.0962 -0.0348,-0.0607 -0.0424,-0.12923 -0.0274,-0.19234 l -1.74697,-1.00256 c -0.0481,0.0568 -0.11901,0.0935 -0.19925,0.0935 -0.0799,0 -0.15086,-0.0367 -0.19895,-0.0929 l -2.15539,1.24449 c 0.0418,0.11721 -0.004,0.25094 -0.11571,0.31525 -0.12561,0.0724 -0.2861,0.0295 -0.35852,-0.0962 -0.0724,-0.12562 -0.0294,-0.2861 0.0962,-0.35853 0.1115,-0.0643 0.25034,-0.0373 0.33089,0.0574 l 2.15539,-1.24448 c -0.01,-0.0277 -0.0162,-0.0568 -0.0162,-0.0875 0,-0.12863 0.0929,-0.23531 0.21518,-0.25785 l 0,-2.29844 c -0.16018,-0.0289 -0.28219,-0.1686 -0.28219,-0.33719 0,-0.01 0.002,-0.0189 0.003,-0.0285 l -1.70579,-0.95779 c -0.0475,0.0481 -0.1136,0.0778 -0.18633,0.0778 -0.0797,0 -0.15027,-0.0363 -0.19835,-0.0926 l -1.762,1.0233 c 8.7e-4,0.008 0.002,0.0153 0.002,0.0234 0,0.14485 -0.11751,0.26236 -0.26236,0.26236 -0.14486,0 -0.26266,-0.11751 -0.26266,-0.26236 0,-0.14485 0.1175,-0.26236 0.26266,-0.26236 0.10248,0 0.19023,0.0592 0.23351,0.14485 l 1.74096,-1.01097 c -0.01,-0.0277 -0.0162,-0.0571 -0.0162,-0.0884 0,-0.12862 0.0929,-0.23531 0.21518,-0.25785 l 0,-2.48807 c -0.12231,-0.0222 -0.21518,-0.12893 -0.21518,-0.25786 0,-0.14485 0.11751,-0.26236 0.26266,-0.26236 0.14516,0 0.26237,0.11751 0.26237,0.26236 0,0.12863 -0.0929,0.23532 -0.21518,0.25786 l 0,2.48807 c 0.12231,0.0222 0.21518,0.12892 0.21518,0.25785 0,0.0379 -0.008,0.0736 -0.0225,0.10609 l 1.67394,0.94005 c 0.0502,-0.12743 0.17371,-0.21819 0.31916,-0.21819 0.15357,0 0.2819,0.10128 0.32577,0.24043 l 1.80829,-0.98663 c -0.008,-0.0258 -0.0142,-0.0529 -0.0142,-0.0815 0,-0.12862 0.0929,-0.23531 0.21519,-0.25785 l 0,-2.48807 c -0.12232,-0.0222 -0.21519,-0.12893 -0.21519,-0.25785 0,-0.14486 0.11751,-0.26237 0.26267,-0.26237 0.14515,0 0.26236,0.11751 0.26236,0.26237 0,0.12862 -0.0929,0.23531 -0.21518,0.25785 l 0,2.48837 c 0.12232,0.0222 0.21518,0.12893 0.21518,0.25786 0,0.0312 -0.006,0.0604 -0.0162,0.0883 l 1.74155,1.01128 c 0.0472,-0.0445 0.1103,-0.0724 0.18032,-0.0724 0.14485,0 0.26267,0.1175 0.26267,0.26236 0,0.14485 -0.11932,0.26236 -0.26417,0.26236 z m -1.56335,-1.89814 0,-2.80212 2.42677,-1.40106 2.42647,1.40106 0,2.80212 -2.42647,1.40107 -2.42677,-1.40107 z m 2.62692,4.5464 0,-2.80213 2.42647,-1.40076 2.42677,1.40076 0,2.80213 -2.42677,1.40106 -2.42647,-1.40106 z m 12.19275,1.8822 c -0.14486,0 -0.26236,-0.1175 -0.26236,-0.26235 0,-0.008 0.002,-0.0157 0.002,-0.0235 l -1.762,-1.0233 c -0.0481,0.0562 -0.11871,0.0926 -0.19835,0.0926 -0.073,0 -0.13884,-0.0298 -0.18633,-0.0778 l -1.71601,0.9635 c 0.0174,0.0412 0.027,0.0862 0.027,0.13344 0,0.17339 -0.12892,0.31524 -0.29601,0.33869 l 0,2.18635 c 0.12231,0.0222 0.21517,0.12892 0.21517,0.25785 0,0.031 -0.006,0.0601 -0.0162,0.0875 l 2.15539,1.24449 c 0.0805,-0.0947 0.21938,-0.12171 0.33088,-0.0574 0.12562,0.0724 0.16859,0.2329 0.0962,0.35853 -0.0724,0.12562 -0.23292,0.1686 -0.35854,0.0962 -0.1115,-0.0643 -0.15748,-0.19804 -0.1157,-0.31525 l -2.1554,-1.24448 c -0.0481,0.0565 -0.119,0.0929 -0.19895,0.0929 -0.0802,0 -0.15116,-0.0366 -0.19925,-0.0935 l -1.74697,1.00255 c 0.015,0.0631 0.007,0.13164 -0.0273,0.19234 -0.0724,0.12562 -0.23292,0.1686 -0.35853,0.0962 -0.12563,-0.0724 -0.1686,-0.23291 -0.0962,-0.35853 0.0724,-0.12562 0.23291,-0.16859 0.35853,-0.0962 0.0352,0.0205 0.0631,0.0481 0.0844,0.0793 l 1.73857,-0.99774 c -0.01,-0.0273 -0.016,-0.0562 -0.016,-0.0869 0,-0.12862 0.0929,-0.23531 0.21518,-0.25785 l 0,-2.18635 c -0.16709,-0.0232 -0.29601,-0.16529 -0.29601,-0.33869 0,-0.0345 0.007,-0.0673 0.0162,-0.0989 l -1.86628,-1.01818 c -0.0481,0.0592 -0.12052,0.098 -0.20286,0.098 -0.0796,0 -0.15027,-0.0363 -0.19835,-0.0926 l -1.73344,1.00677 c 0.0165,0.0343 0.0265,0.0724 0.0265,0.113 0,0.14485 -0.1175,0.26236 -0.26236,0.26236 -0.14485,0 -0.26266,-0.11751 -0.26266,-0.26236 0,-0.14485 0.11751,-0.26236 0.26266,-0.26236 0.07,0 0.13314,0.028 0.18031,0.0724 l 1.74157,-1.01128 c -0.01,-0.0276 -0.0162,-0.0571 -0.0162,-0.0883 0,-0.12862 0.0929,-0.23531 0.21517,-0.25785 l 0,-2.48837 c -0.12232,-0.0222 -0.21517,-0.12893 -0.21517,-0.25785 0,-0.14485 0.1175,-0.26236 0.26266,-0.26236 0.14515,0 0.26266,0.11751 0.26266,0.26236 0,0.12862 -0.0929,0.23531 -0.21518,0.25785 l 0,2.48837 c 0.12231,0.0222 0.21518,0.12893 0.21518,0.25785 0,0.0285 -0.006,0.0556 -0.0142,0.0814 l 1.85967,1.01459 c 0.061,-0.0947 0.1671,-0.15779 0.28821,-0.15779 0.10819,0 0.20347,0.0511 0.26657,0.12925 l 1.71242,-0.96171 c -0.0145,-0.0325 -0.0229,-0.0682 -0.0229,-0.10609 0,-0.12862 0.0929,-0.2353 0.21518,-0.25784 l 0,-2.48837 c -0.12231,-0.0222 -0.21518,-0.12893 -0.21518,-0.25785 0,-0.14487 0.11751,-0.26237 0.26237,-0.26237 0.14485,0 0.26266,0.1175 0.26266,0.26237 0,0.12862 -0.0929,0.23531 -0.21518,0.25785 l 0,2.48806 c 0.12232,0.0222 0.21518,0.12893 0.21518,0.25785 0,0.0312 -0.006,0.0604 -0.0162,0.0884 l 1.74096,1.01097 c 0.0433,-0.0857 0.13103,-0.14485 0.23351,-0.14485 0.14485,0 0.26266,0.11752 0.26266,0.26236 -0.001,0.14515 -0.11871,0.26268 -0.26386,0.26268 z m -1.65682,-1.89813 0,-2.80213 2.42677,-1.40106 2.42677,1.40106 0,2.80213 -2.42677,1.40106 -2.42677,-1.40106 z m 12.3926,5.21086 -2.42677,1.40106 -2.42677,-1.40106 0,-2.80212 2.42677,-1.40077 2.42677,1.40077 0,2.80212 z m -0.25845,-3.16427 c -0.14486,0 -0.26266,-0.1175 -0.26266,-0.26235 0,-0.0406 0.01,-0.0788 0.0265,-0.113 l -1.73346,-1.00677 c -0.0481,0.0562 -0.1187,0.0926 -0.19835,0.0926 -0.0823,0 -0.15477,-0.0385 -0.20285,-0.098 l -1.83653,1.00196 c 0,0.002 3e-4,0.003 3e-4,0.005 0,0.18963 -0.15357,0.3432 -0.34321,0.3432 -0.18963,0 -0.3435,-0.15387 -0.3435,-0.3432 0,-0.01 0.002,-0.0189 0.003,-0.0285 l -1.7058,-0.95778 c -0.0475,0.0481 -0.1136,0.0778 -0.18633,0.0778 -0.0796,0 -0.15027,-0.0363 -0.19835,-0.0926 l -1.762,1.02331 c 0.001,0.008 0.002,0.0153 0.002,0.0234 0,0.14486 -0.11751,0.26237 -0.26236,0.26237 -0.14485,0 -0.26266,-0.11751 -0.26266,-0.26237 0,-0.14485 0.1175,-0.26236 0.26266,-0.26236 0.10248,0 0.19024,0.0592 0.23351,0.14486 l 1.74096,-1.01098 c -0.01,-0.0276 -0.0162,-0.0571 -0.0162,-0.0884 0,-0.12862 0.0929,-0.2353 0.21518,-0.25784 l 0,-2.48808 c -0.12232,-0.0222 -0.21518,-0.12892 -0.21518,-0.25785 0,-0.14485 0.11751,-0.26236 0.26267,-0.26236 0.14515,0 0.26266,0.11751 0.26266,0.26236 0,0.12863 -0.0929,0.23531 -0.21517,0.25785 l 0,2.48808 c 0.1223,0.0222 0.21517,0.12892 0.21517,0.25784 0,0.0379 -0.008,0.0736 -0.0229,0.10609 l 1.67395,0.94005 c 0.0502,-0.12742 0.17371,-0.21818 0.31916,-0.21818 0.15357,0 0.2819,0.10128 0.32577,0.24042 l 1.80828,-0.98662 c -0.008,-0.0258 -0.0142,-0.0529 -0.0142,-0.0814 0,-0.12862 0.0929,-0.23529 0.21518,-0.25783 l 0,-2.48808 c -0.12231,-0.0222 -0.21518,-0.12893 -0.21518,-0.25785 0,-0.14486 0.11751,-0.26236 0.26236,-0.26236 0.14486,0 0.26267,0.1175 0.26267,0.26236 0,0.12863 -0.0929,0.23531 -0.21518,0.25785 l 0,2.48808 c 0.12231,0.0222 0.21518,0.12892 0.21518,0.25783 0,0.0312 -0.006,0.0604 -0.0162,0.0884 l 1.74157,1.01128 c 0.0472,-0.0445 0.11029,-0.0724 0.18032,-0.0724 0.14485,0 0.26235,0.11751 0.26235,0.26237 -0.001,0.14485 -0.11871,0.26236 -0.26356,0.26236 z m 3.15825,-1.87137 -2.42707,1.40106 -2.42677,-1.40106 0,-2.80213 2.42677,-1.40106 2.42707,1.40106 0,2.80213 z"
         id="path3484"
         style="fill:#287397;fill-opacity:1"
         inkscape:connector-curvature="0" /></g></g></svg>